<svg width="128" height="128" viewBox="0 0 128 128" fill="none" xmlns="http://www.w3.org/2000/svg">
<rect width="128" height="128" fill="white"/>
<path d="M57.9945 39.4395C60.412 39.4395 62.3318 40.151 63.7539 41.574C65.247 42.9258 65.9936 44.7401 65.9936 47.0168V87.2513C65.9936 95.718 63.5406 102.121 58.6345 106.461C53.7284 110.801 46.5469 112.972 37.0902 112.972C29.1267 112.972 22.5852 111.549 17.4658 108.703C16.186 107.991 15.1905 107.102 14.4795 106.035C13.7685 105.038 13.4129 103.9 13.4129 102.619C13.4129 100.841 13.8396 99.3821 14.6928 98.2438C15.546 97.1054 16.6837 96.5362 18.1057 96.5362C18.8879 96.5362 19.8122 96.6785 20.8788 96.9631C21.9453 97.3188 23.0474 97.7101 24.1851 98.137C26.4603 98.9908 28.5579 99.6667 30.4777 100.165C32.3974 100.663 34.4594 100.912 36.6636 100.912C41.2142 100.912 44.5916 99.8802 46.7958 97.8169C49 95.7536 50.1021 92.623 50.1021 88.4253V82.6622C48.6089 85.3659 46.3692 87.5003 43.3829 89.0656C40.3965 90.6309 37.0547 91.4135 33.3573 91.4135C28.8067 91.4135 24.7539 90.3463 21.1987 88.2118C17.7147 86.0774 14.9772 83.0535 12.9863 79.1404C10.9954 75.1561 10 70.567 10 65.3731C10 60.1793 10.9954 55.6258 12.9863 51.7126C14.9772 47.7283 17.7147 44.6689 21.1987 42.5345C24.7539 40.3289 28.8067 39.2261 33.3573 39.2261C36.9836 39.2261 40.2543 40.0087 43.1696 41.574C46.1559 43.0681 48.4312 45.167 49.9954 47.8706V46.8034C49.9954 44.5266 50.7065 42.7479 52.1285 41.4672C53.6217 40.1154 55.577 39.4395 57.9945 39.4395ZM38.0501 79.1404C41.8186 79.1404 44.7338 77.9309 46.7958 75.5118C48.9289 73.0928 49.9954 69.7132 49.9954 65.3731C49.9954 61.0331 48.9289 57.6535 46.7958 55.2345C44.7338 52.7443 41.8186 51.4992 38.0501 51.4992C34.2817 51.4992 31.3309 52.7443 29.1978 55.2345C27.0647 57.6535 25.9982 61.0331 25.9982 65.3731C25.9982 69.7132 27.0647 73.0928 29.1978 75.5118C31.3309 77.9309 34.2817 79.1404 38.0501 79.1404Z" fill="black"/>
<path d="M100.17 37.0916C112.328 37.0916 118.407 44.4555 118.407 59.1832V83.8362C118.407 86.1841 117.661 88.0339 116.168 89.3858C114.746 90.7376 112.79 91.4135 110.302 91.4135C107.813 91.4135 105.858 90.7376 104.436 89.3858C103.014 88.0339 102.303 86.1841 102.303 83.8362V58.9698C102.303 55.8392 101.627 53.5269 100.276 52.0328C98.9964 50.4675 96.9699 49.6849 94.1969 49.6849C90.8551 49.6849 88.1531 50.7521 86.0912 52.8866C84.1003 55.021 83.1048 57.867 83.1048 61.4244V83.8362C83.1048 86.1841 82.3938 88.0339 80.9717 89.3858C79.5497 90.7376 77.5943 91.4135 75.1057 91.4135C72.6171 91.4135 70.6263 90.7376 69.1331 89.3858C67.711 88.0339 67 86.1841 67 83.8362V22.3639C67 20.1583 67.7466 18.3796 69.2397 17.0277C70.804 15.6759 72.8305 15 75.3191 15C77.6655 15 79.5497 15.6403 80.9717 16.921C82.3938 18.2017 83.1048 19.9092 83.1048 22.0437V45.3093C84.9535 42.6056 87.3355 40.5779 90.2507 39.2261C93.1659 37.8031 96.4722 37.0916 100.17 37.0916Z" fill="black"/>
</svg>
